<?xml version="1.0" encoding="UTF-8" standalone="no"?><svg xmlns="http://www.w3.org/2000/svg" xmlns:xlink="http://www.w3.org/1999/xlink" fill="#000000" height="939.5" preserveAspectRatio="xMidYMid meet" version="1" viewBox="530.3 530.3 939.5 939.5" width="939.5" zoomAndPan="magnify"><g id="change1_1"><path d="M 999.996094 547.191406 C 1250.070312 547.191406 1452.800781 749.929688 1452.800781 1000 C 1452.800781 1250.070312 1250.070312 1452.808594 999.996094 1452.808594 C 749.921875 1452.808594 547.191406 1250.070312 547.191406 1000 C 547.191406 749.929688 749.921875 547.191406 999.996094 547.191406 Z M 999.996094 530.269531 C 740.570312 530.269531 530.273438 740.570312 530.273438 1000 C 530.273438 1259.429688 740.570312 1469.730469 999.996094 1469.730469 C 1259.429688 1469.730469 1469.730469 1259.429688 1469.730469 1000 C 1469.730469 740.570312 1259.429688 530.269531 999.996094 530.269531 Z M 1225.140625 791.019531 L 1225.140625 987.46875 L 1169.769531 951.710938 L 1065.078125 1016.71875 L 1047.460938 1027.671875 L 1037.160156 1034.058594 L 1037.160156 732.828125 L 918.183594 806.558594 L 918.183594 936.160156 L 890.261719 917.261719 L 890.261719 791.019531 L 1065.078125 682.679688 Z M 609.046875 1000 C 609.046875 784.078125 784.078125 609.050781 1000 609.050781 C 1215.921875 609.050781 1390.949219 784.078125 1390.949219 1000 C 1390.949219 1099.769531 1353.519531 1190.769531 1292.011719 1259.851562 L 1292.011719 1051.648438 L 1170.210938 969.199219 L 1037.160156 1051.648438 L 1037.160156 1389.148438 C 1024.921875 1390.300781 1012.539062 1390.949219 1000 1390.949219 C 987.460938 1390.949219 975.074219 1390.300781 962.832031 1389.148438 L 962.832031 985.308594 L 841.027344 902.859375 L 707.992188 985.308594 L 707.992188 1259.851562 C 646.480469 1190.769531 609.046875 1099.769531 609.046875 1000 Z M 729.234375 997.140625 L 819.785156 941.03125 L 819.785156 1346.910156 C 786.503906 1329.578125 756.046875 1307.621094 729.234375 1281.859375 Z M 1058.410156 1063.480469 L 1148.960938 1007.371094 L 1148.960938 1361.5 C 1120.320312 1373.308594 1089.988281 1381.859375 1058.410156 1386.589844 Z M 569.859375 1000 C 569.859375 1237.558594 762.4375 1430.140625 1000 1430.140625 C 1237.558594 1430.140625 1430.140625 1237.558594 1430.140625 1000 C 1430.140625 762.441406 1237.558594 569.859375 1000 569.859375 C 762.4375 569.859375 569.859375 762.441406 569.859375 1000" fill="#f9f7f0"/></g></svg>